<svg width="194" height="194" viewBox="0 0 194 194" fill="none" xmlns="http://www.w3.org/2000/svg">
<circle cx="97" cy="97" r="96.5" fill="#0D0D0D" stroke="white"/>
<path fill-rule="evenodd" clip-rule="evenodd" d="M165.026 39.6084C151.332 27.4112 133.281 20 113.5 20C70.6979 20 36 54.6979 36 97.5C36 140.302 70.6979 175 113.5 175C131.583 175 148.22 168.807 161.404 158.426C145.196 175.415 122.334 186 97 186C47.8467 186 8 146.153 8 97C8 47.8467 47.8467 8 97 8C124.284 8 148.7 20.2772 165.026 39.6084Z" fill="white"/>
<circle cx="97" cy="97" r="28" fill="white"/>
<circle cx="97" cy="97" r="4" fill="#0D0D0D"/>
<path d="M30 108C30 63.8172 65.8172 28 110 28C154.183 28 190 63.8172 190 108C190 119.835 187.43 131.07 182.818 141.176C182.814 141.184 182.807 141.2 182.807 141.2" stroke="white"/>
</svg>
